<?xml version="1.0" encoding="UTF-8"?>
<svg width="16px" height="16px" viewBox="0 0 16 16" version="1.1" xmlns="http://www.w3.org/2000/svg" xmlns:xlink="http://www.w3.org/1999/xlink">
    <!-- Generator: Sketch 50.2 (55047) - http://www.bohemiancoding.com/sketch -->
    <title>xiazai_icon</title>
    <desc>Created with Sketch.</desc>
    <defs></defs>
    <g id="Symbols" stroke="none" stroke-width="1" fill="none" fill-rule="evenodd">
        <path d="M13,15 L13,13.5 C13,13.2238576 13.2238576,13 13.5,13 C13.7761424,13 14,13.2238576 14,13.5 L14,15.5 C14,15.7761424 13.7761424,16 13.5,16 L2.5,16 C2.22385763,16 2,15.7761424 2,15.5 L2,13.5 C2,13.2238576 2.22385763,13 2.5,13 C2.77614237,13 3,13.2238576 3,13.5 L3,15 L13,15 Z M8.26025222,11.367918 L11.2805037,8.12980556 C11.4668727,7.92603797 11.7831408,7.91193358 11.9869084,8.09830252 C12.190676,8.28467146 12.2047804,8.60093961 12.0184114,8.80470719 L8.15434649,12.9551615 C7.95903141,13.1687104 7.62376621,13.1723529 7.42385754,12.9630979 L3.46843006,8.82058012 C3.27767793,8.6209098 3.28490755,8.30440987 3.48457787,8.11365774 C3.68424819,7.92290562 4.00074812,7.93013524 4.19150025,8.12980556 L7.26025222,11.3438814 L7.26025222,0.5 C7.26025222,0.223857625 7.48410985,-1.77635684e-15 7.76025222,-1.77635684e-15 C8.0363946,-1.77635684e-15 8.26025222,0.223857625 8.26025222,0.5 L8.26025222,11.367918 Z" id="Combined-Shape" fill="#666666" fill-rule="nonzero"></path>
    </g>
</svg>