<?xml version="1.0" encoding="UTF-8"?>
<svg width="16px" height="16px" viewBox="0 0 16 16" version="1.1" xmlns="http://www.w3.org/2000/svg" xmlns:xlink="http://www.w3.org/1999/xlink">
    <!-- Generator: Sketch 50.2 (55047) - http://www.bohemiancoding.com/sketch -->
    <title>xiayiyiti_icon</title>
    <desc>Created with Sketch.</desc>
    <defs></defs>
    <g id="Symbols" stroke="none" stroke-width="1" fill="none" fill-rule="evenodd">
        <path d="M4.0000031,1 L11.0000031,1 L4.0000031,1 Z M7.0000031,4.09746532 L0.86895695,10.800881 C0.682588009,11.0046485 0.366319865,11.0187529 0.162552279,10.832384 C-0.0412153072,10.6460151 -0.0553196958,10.3297469 0.131049245,10.1259793 L7.10590883,2.49997526 C7.30122391,2.28642636 7.63648911,2.28278384 7.83639778,2.49203879 L15.1217896,10.1180429 C15.3125417,10.3177132 15.3053121,10.6342131 15.1056418,10.8249652 C14.9059715,11.0157174 14.5894715,11.0084877 14.3987194,10.8088174 L8.0000031,4.1109434 L8.0000031,14.9551367 C8.0000031,15.2312791 7.77614547,15.4551367 7.5000031,15.4551367 C7.22386072,15.4551367 7.0000031,15.2312791 7.0000031,14.9551367 L7.0000031,4.09746532 Z M4.0000031,0 L11.0000031,0 C11.2761455,0 11.5000031,0.223857625 11.5000031,0.5 C11.5000031,0.776142375 11.2761455,1 11.0000031,1 L4.0000031,1 C3.72386072,1 3.5000031,0.776142375 3.5000031,0.5 C3.5000031,0.223857625 3.72386072,0 4.0000031,0 Z" id="Combined-Shape-Copy-17" fill="#666666" fill-rule="nonzero" transform="translate(7.630128, 7.727568) rotate(-180.000000) translate(-7.630128, -7.727568) "></path>
    </g>
</svg>