<?xml version="1.0" encoding="UTF-8"?>
<svg width="16px" height="16px" viewBox="0 0 16 16" version="1.1" xmlns="http://www.w3.org/2000/svg" xmlns:xlink="http://www.w3.org/1999/xlink">
    <!-- Generator: Sketch 50.2 (55047) - http://www.bohemiancoding.com/sketch -->
    <title>bainji_icon</title>
    <desc>Created with Sketch.</desc>
    <defs></defs>
    <g id="Symbols" stroke="none" stroke-width="1" fill="none" fill-rule="evenodd">
        <path d="M4.28642132,12.3820273 C4.29061596,12.4392513 4.29588517,12.4917354 4.30197786,12.5393125 C4.34622724,12.5208004 4.39431437,12.4991216 4.44596917,12.4741422 C4.86794224,12.2700835 5.43440077,11.8924475 6.13024387,11.3444514 L11.533313,1.98606121 L9.82569404,1.00016698 L4.42262356,10.3585596 C4.29596796,11.2351731 4.25215489,11.9145585 4.28642132,12.3820273 Z M4.35797075,12.798384 C4.35843859,12.7996049 4.35890704,12.8008102 4.35937606,12.8019998 C4.35841747,12.7995685 4.35624274,12.795771 4.35274598,12.7908552 L4.35797075,12.798384 Z M10.325694,0.134141571 L12.033313,1.12003581 C12.5116056,1.39617818 12.6754807,2.00776859 12.3993384,2.48606121 L6.90116387,12.0091788 C5.26848125,13.3166665 4.20803825,13.8294781 3.71983486,13.5476138 C3.23163147,13.2657494 3.1455179,12.090973 3.46149416,10.0232845 L8.95966864,0.500166975 C9.23581102,0.0218743518 9.84740142,-0.142000803 10.325694,0.134141571 Z M1.5,14.6341416 L14.5,14.6341416 C14.7761424,14.6341416 15,14.8579992 15,15.1341416 C15,15.4102839 14.7761424,15.6341416 14.5,15.6341416 L1.5,15.6341416 C1.22385763,15.6341416 1,15.4102839 1,15.1341416 C1,14.8579992 1.22385763,14.6341416 1.5,14.6341416 Z" id="Combined-Shape" fill="#666666" fill-rule="nonzero"></path>
    </g>
</svg>