<?xml version="1.0" encoding="UTF-8"?>
<svg width="13px" height="16px" viewBox="0 0 13 16" version="1.1" xmlns="http://www.w3.org/2000/svg" xmlns:xlink="http://www.w3.org/1999/xlink">
    <!-- Generator: Sketch 50.2 (55047) - http://www.bohemiancoding.com/sketch -->
    <title>Combined Shape Copy</title>
    <desc>Created with Sketch.</desc>
    <defs></defs>
    <g id="Symbols" stroke="none" stroke-width="1" fill="none" fill-rule="evenodd">
        <path d="M1.6,14.4 L11.2,14.4 L11.2,4 L8.8,1.6 L1.6,1.6 L1.6,14.4 Z M0,0 L9.6,0 L12.8,3.2 L12.8,16 L0,16 L0,0 Z M8.8,1.6 L11.2,4 L8.8,4 L8.8,1.6 Z M4.776,11.2 L4.776,5.312 L6.56,5.312 C7.872,5.312 8.808,5.76 8.808,7.088 C8.808,8.376 7.872,8.968 6.592,8.968 L5.704,8.968 L5.704,11.2 L4.776,11.2 Z M5.704,8.224 L6.504,8.224 C7.448,8.224 7.896,7.864 7.896,7.088 C7.896,6.312 7.408,6.056 6.472,6.056 L5.704,6.056 L5.704,8.224 Z" id="Combined-Shape-Copy" fill="#FF5B74" fill-rule="nonzero"></path>
    </g>
</svg>