<?xml version="1.0" encoding="UTF-8"?>
<svg width="16px" height="16px" viewBox="0 0 16 16" version="1.1" xmlns="http://www.w3.org/2000/svg" xmlns:xlink="http://www.w3.org/1999/xlink">
    <!-- Generator: Sketch 50.2 (55047) - http://www.bohemiancoding.com/sketch -->
    <title>shuaxin_icon</title>
    <desc>Created with Sketch.</desc>
    <defs></defs>
    <g id="Symbols" stroke="none" stroke-width="1" fill="none" fill-rule="evenodd">
        <path d="M15.0351379,4.8156447 L15.0351379,2.69021587 C15.0351379,2.4140735 15.2589955,2.19021587 15.5351379,2.19021587 C15.8112803,2.19021587 16.0351379,2.4140735 16.0351379,2.69021587 L16.0351379,6.73116129 C16.0351379,7.00730367 15.8112803,7.23116129 15.5351379,7.23116129 C15.4451503,7.23116129 15.3607149,7.20738896 15.2877693,7.16578173 C15.2334125,7.16891632 15.1769343,7.16306113 15.1198362,7.14673563 L11.5694223,6.13159983 C11.3039192,6.05568709 11.1502259,5.77891491 11.2261387,5.51341186 C11.3020514,5.24790882 11.5788236,5.09421551 11.8443266,5.17012825 L14.4686571,5.92047789 C13.4588834,3.58285541 11.1360474,2 8.5,2 C4.91014913,2 2,4.91014913 2,8.5 C2,12.0898509 4.91014913,15 8.5,15 C11.3417762,15 13.8287198,13.1596976 14.6874586,10.4974712 C14.7722311,10.2346629 15.0540011,10.0903363 15.3168095,10.1751089 C15.5796178,10.2598815 15.7239443,10.5416514 15.6391718,10.8044598 C14.6481377,13.8768226 11.7789232,16 8.5,16 C4.35786438,16 1,12.6421356 1,8.5 C1,4.35786438 4.35786438,1 8.5,1 C11.2671601,1 13.7348894,2.51139826 15.0351379,4.8156447 Z" id="Combined-Shape" fill="#666666" fill-rule="nonzero"></path>
    </g>
</svg>