<?xml version="1.0" encoding="UTF-8"?>
<svg width="16px" height="16px" viewBox="0 0 16 16" version="1.1" xmlns="http://www.w3.org/2000/svg" xmlns:xlink="http://www.w3.org/1999/xlink">
    <!-- Generator: Sketch 50.2 (55047) - http://www.bohemiancoding.com/sketch -->
    <title>xiangxi_icon</title>
    <desc>Created with Sketch.</desc>
    <defs></defs>
    <g id="Symbols" stroke="none" stroke-width="1" fill="none" fill-rule="evenodd">
        <path d="M3,15 L13,15 C13.5522847,15 14,14.5522847 14,14 L14,2 C14,1.44771525 13.5522847,1 13,1 L3,1 C2.44771525,1 2,1.44771525 2,2 L2,14 C2,14.5522847 2.44771525,15 3,15 Z M1,2 C1,0.892771196 1.39451376,0 2.5,0 L13,0 C14.1072288,0 15,0.894513756 15,2 L15,14 C15,15.1072288 14.1054862,16 13,16 L2.5,16 C1.3927712,16 1,15.1054862 1,14 L1,2 Z M6.5,9 C7.88071187,9 9,7.88071187 9,6.5 C9,5.11928813 7.88071187,4 6.5,4 C5.11928813,4 4,5.11928813 4,6.5 C4,7.88071187 5.11928813,9 6.5,9 Z M6.5,10 C4.56700338,10 3,8.43299662 3,6.5 C3,4.56700338 4.56700338,3 6.5,3 C8.43299662,3 10,4.56700338 10,6.5 C10,8.43299662 8.43299662,10 6.5,10 Z M9.6063852,10.1995218 L11.8305578,12.5776873 C12.0167318,12.7638613 12.3185794,12.7638613 12.5047534,12.5776873 C12.6909274,12.3915133 12.6909274,12.0896657 12.5047534,11.9034917 L10.2805808,9.52532625 C10.0944068,9.33915228 9.79255916,9.33915228 9.6063852,9.52532625 C9.42021123,9.71150021 9.42021123,10.0133478 9.6063852,10.1995218 Z" id="Combined-Shape-Copy-11" fill="#666666" fill-rule="nonzero"></path>
    </g>
</svg>