<?xml version="1.0" encoding="UTF-8"?>
<svg width="13px" height="16px" viewBox="0 0 13 16" version="1.1" xmlns="http://www.w3.org/2000/svg" xmlns:xlink="http://www.w3.org/1999/xlink">
    <!-- Generator: Sketch 50.2 (55047) - http://www.bohemiancoding.com/sketch -->
    <title>Combined Shape Copy</title>
    <desc>Created with Sketch.</desc>
    <defs></defs>
    <g id="Symbols" stroke="none" stroke-width="1" fill="none" fill-rule="evenodd">
        <path d="M1.6,14.4 L11.2,14.4 L11.2,4 L8.8,1.6 L1.6,1.6 L1.6,14.4 Z M0,0 L9.6,0 L12.8,3.2 L12.8,16 L0,16 L0,0 Z M8.8,1.6 L11.2,4 L8.8,4 L8.8,1.6 Z M4.43204134,11.2 L3.2,6.4 L4.15917313,6.4 C4.67183463,8.73890909 4.95572782,10.0596364 5.01085271,10.3621818 L5.97829457,6.4 L6.8630491,6.4 L7.85529716,10.3621818 C7.91593454,10.0596364 8.19982773,8.73890909 8.70697674,6.4 L9.6,6.4 L8.42583979,11.2 L7.28475452,11.2 C6.77209302,9.024 6.48268734,7.77018182 6.41653747,7.43854545 L5.53178295,11.2 L4.43204134,11.2 Z" id="Combined-Shape-Copy" fill="#459BF7" fill-rule="nonzero"></path>
    </g>
</svg>