<?xml version="1.0" encoding="UTF-8"?>
<svg width="13px" height="16px" viewBox="0 0 13 16" version="1.1" xmlns="http://www.w3.org/2000/svg" xmlns:xlink="http://www.w3.org/1999/xlink">
    <!-- Generator: Sketch 50.2 (55047) - http://www.bohemiancoding.com/sketch -->
    <title>Combined Shape</title>
    <desc>Created with Sketch.</desc>
    <defs></defs>
    <g id="Symbols" stroke="none" stroke-width="1" fill="none" fill-rule="evenodd">
        <g id="Group-3-Copy" fill="#F5A623" fill-rule="nonzero">
            <g id="H5-Copy">
                <path d="M1.6,14.4 L11.2,14.4 L11.2,4 L8.8,1.6 L1.6,1.6 L1.6,14.4 Z M0,0 L9.6,0 L12.8,3.2 L12.8,16 L0,16 L0,0 Z M8.8,1.6 L11.2,4 L8.8,4 L8.8,1.6 Z M4,11.4423828 L4,10.6513672 L7.30029297,6.52490234 C7.53466914,6.23193213 7.75732316,5.97705187 7.96826172,5.76025391 L4.37353516,5.76025391 L4.37353516,5 L8.98779297,5 L8.98779297,5.76025391 L5.37109375,10.2294922 L4.97998047,10.6821289 L9.09326172,10.6821289 L9.09326172,11.4423828 L4,11.4423828 Z" id="Combined-Shape"></path>
            </g>
        </g>
    </g>
</svg>