<?xml version="1.0" encoding="UTF-8"?>
<svg width="16px" height="16px" viewBox="0 0 16 16" version="1.1" xmlns="http://www.w3.org/2000/svg" xmlns:xlink="http://www.w3.org/1999/xlink">
    <!-- Generator: Sketch 50.2 (55047) - http://www.bohemiancoding.com/sketch -->
    <title>tishi</title>
    <desc>Created with Sketch.</desc>
    <defs></defs>
    <g id="Symbols" stroke="none" stroke-width="1" fill="none" fill-rule="evenodd">
        <path d="M10.2435523,2.53027547 L9.90560932,2.36028111 L9.97730113,1.9888463 C9.9923478,1.91088957 10,1.83107255 10,1.75 C10,1.05964406 9.44035594,0.5 8.75,0.5 L7.25,0.5 C6.55964406,0.5 6,1.05964406 6,1.75 C6,1.83107255 6.0076522,1.91088957 6.02269887,1.9888463 L6.09439068,2.36028111 L5.75644771,2.53027547 C4.08019807,3.37347387 3,5.09003723 3,7 L3,9 L2.5,9 C1.3954305,9 0.5,9.8954305 0.5,11 C0.5,12.1045695 1.3954305,13 2.5,13 L13.5,13 C14.6045695,13 15.5,12.1045695 15.5,11 C15.5,9.8954305 14.6045695,9 13.5,9 L13,9 L13,7 C13,5.09003723 11.9198019,3.37347387 10.2435523,2.53027547 Z M6.6337822,15 C6.80668691,15.2989007 7.12985882,15.5 7.5,15.5 L8.5,15.5 C8.87014118,15.5 9.19331309,15.2989007 9.3662178,15 L6.6337822,15 Z" id="Combined-Shape-Copy-15" stroke="#666666"></path>
    </g>
</svg>