<?xml version="1.0" encoding="UTF-8"?>
<svg width="16px" height="16px" viewBox="0 0 16 16" version="1.1" xmlns="http://www.w3.org/2000/svg" xmlns:xlink="http://www.w3.org/1999/xlink">
    <!-- Generator: Sketch 50.2 (55047) - http://www.bohemiancoding.com/sketch -->
    <title>rili_icon</title>
    <desc>Created with Sketch.</desc>
    <defs></defs>
    <g id="Symbols" stroke="none" stroke-width="1" fill="none" fill-rule="evenodd">
        <path d="M2.50859831,8 L12.5085983,8 C12.8769831,8.06183796 13.0611754,8.22850462 13.0611754,8.5 C13.0611754,8.77149538 12.8769831,8.93816204 12.5085983,9 L2.50859831,9 C2.16953277,8.94733123 2,8.78066457 2,8.5 C2,8.21933543 2.16953277,8.05266877 2.50859831,8 Z M2.32186346,11 L8.6503048,11 C8.88343493,11.061838 9,11.2285046 9,11.5 C9,11.7714954 8.88343493,11.938162 8.6503048,12 L2.32186346,12 C2.10728782,11.9473312 2,11.7806646 2,11.5 C2,11.2193354 2.10728782,11.0526688 2.32186346,11 Z M2,3 C1.44771525,3 1,3.44771525 1,4 L1,14 C1,14.5522847 1.44771525,15 2,15 L14,15 C14.5522847,15 15,14.5522847 15,14 L15,4 C15,3.44771525 14.5522847,3 14,3 L2,3 Z M2,2 L14,2 C15.1045695,2 16,2.8954305 16,4 L16,14 C16,15.1045695 15.1045695,16 14,16 L2,16 C0.8954305,16 0,15.1045695 0,14 L0,4 C0,2.8954305 0.8954305,2 2,2 Z M3,2 L6,2 L6,3 L3,3 L3,2 Z M10,2 L13,2 L13,3 L10,3 L10,2 Z M4,0.5 C4,0.223857625 4.22385763,0 4.5,0 C4.77614237,0 5,0.223857625 5,0.5 L5,4.48732189 C5,4.76346427 4.77614237,4.98732189 4.5,4.98732189 C4.22385763,4.98732189 4,4.76346427 4,4.48732189 L4,0.5 Z M11,0.5 C11,0.223857625 11.2238576,0 11.5,0 C11.7761424,0 12,0.223857625 12,0.5 L12,4.48732189 C12,4.76346427 11.7761424,4.98732189 11.5,4.98732189 C11.2238576,4.98732189 11,4.76346427 11,4.48732189 L11,0.5 Z" id="Combined-Shape" fill="#666666"></path>
    </g>
</svg>