<?xml version="1.0" encoding="UTF-8"?>
<svg width="16px" height="16px" viewBox="0 0 16 16" version="1.1" xmlns="http://www.w3.org/2000/svg" xmlns:xlink="http://www.w3.org/1999/xlink">
    <!-- Generator: Sketch 50.2 (55047) - http://www.bohemiancoding.com/sketch -->
    <title>qinjia_icon</title>
    <desc>Created with Sketch.</desc>
    <defs></defs>
    <g id="Symbols" stroke="none" stroke-width="1" fill="none" fill-rule="evenodd">
        <path d="M2.45980494,7 L5.26861165,7 C5.6016547,7.06183796 5.76817622,7.22850462 5.76817622,7.5 C5.76817622,7.77149538 5.6016547,7.93816204 5.26861165,8 L2.45980494,8 C2.15326831,7.94733123 2,7.78066457 2,7.5 C2,7.21933543 2.15326831,7.05266877 2.45980494,7 Z M2.32186346,10 L4.53740844,10 C4.8239324,10.061838 4.96719437,10.2285046 4.96719437,10.5 C4.96719437,10.7714954 4.8239324,10.938162 4.53740844,11 L2.32186346,11 C2.10728782,10.9473312 2,10.7806646 2,10.5 C2,10.2193354 2.10728782,10.0526688 2.32186346,10 Z M2,3 C1.44771525,3 1,3.44771525 1,4 L1,14 C1,14.5522847 1.44771525,15 2,15 L14,15 C14.5522847,15 15,14.5522847 15,14 L15,4 C15,3.44771525 14.5522847,3 14,3 L2,3 Z M2,2 L14,2 C15.1045695,2 16,2.8954305 16,4 L16,14 C16,15.1045695 15.1045695,16 14,16 L2,16 C0.8954305,16 0,15.1045695 0,14 L0,4 C0,2.8954305 0.8954305,2 2,2 Z M3,2 L6,2 L6,3 L3,3 L3,2 Z M10,2 L13,2 L13,3 L10,3 L10,2 Z M4,0.5 C4,0.223857625 4.22385763,0 4.5,0 C4.77614237,0 5,0.223857625 5,0.5 L5,4.48732189 C5,4.76346427 4.77614237,4.98732189 4.5,4.98732189 C4.22385763,4.98732189 4,4.76346427 4,4.48732189 L4,0.5 Z M11,0.5 C11,0.223857625 11.2238576,0 11.5,0 C11.7761424,0 12,0.223857625 12,0.5 L12,4.48732189 C12,4.76346427 11.7761424,4.98732189 11.5,4.98732189 C11.2238576,4.98732189 11,4.76346427 11,4.48732189 L11,0.5 Z M10,13 C11.6568542,13 13,11.6568542 13,10 C13,8.34314575 11.6568542,7 10,7 C8.34314575,7 7,8.34314575 7,10 C7,11.6568542 8.34314575,13 10,13 Z M10,14 C7.790861,14 6,12.209139 6,10 C6,7.790861 7.790861,6 10,6 C12.209139,6 14,7.790861 14,10 C14,12.209139 12.209139,14 10,14 Z M8.7024613,10.5 C8.42631892,10.5 8.2024613,10.2761424 8.2024613,10 C8.2024613,9.72385763 8.42631892,9.5 8.7024613,9.5 L11.4363484,9.5 C11.7124907,9.5 11.9363484,9.72385763 11.9363484,10 C11.9363484,10.2761424 11.7124907,10.5 11.4363484,10.5 L8.7024613,10.5 Z" id="Combined-Shape" fill="#666666"></path>
    </g>
</svg>