<?xml version="1.0" encoding="UTF-8"?>
<svg width="16px" height="16px" viewBox="0 0 16 16" version="1.1" xmlns="http://www.w3.org/2000/svg" xmlns:xlink="http://www.w3.org/1999/xlink">
    <!-- Generator: Sketch 50.2 (55047) - http://www.bohemiancoding.com/sketch -->
    <title>yincang_icon</title>
    <desc>Created with Sketch.</desc>
    <defs></defs>
    <g id="Symbols" stroke="none" stroke-width="1" fill="none" fill-rule="evenodd">
        <path d="M9.100863,8.89959705 C8.56759689,8.96656558 8.03398643,9.00008556 7.50009466,9.00008556 C6.92275897,9.00008556 6.34575225,8.96088845 5.76915422,8.88258455 L4.97746114,11.4235809 C4.89531866,11.6872231 4.61500478,11.8343577 4.35136255,11.7522152 C4.08772032,11.6700728 3.9405857,11.3897589 4.02272817,11.1261167 L4.77584565,8.70893151 C3.86178044,8.5134482 2.94885936,8.21964741 2.03740083,7.82788995 L0.939087303,9.84236268 C0.806901372,10.0848116 0.503199799,10.1741975 0.260750854,10.0420115 C0.0183019093,9.9098256 -0.0710839241,9.60612403 0.0611020072,9.36367508 L1.1290905,7.40482302 C0.836569975,7.2580466 0.544211349,7.10117065 0.252025186,6.93420713 C0.0122664626,6.79720215 -0.0710319007,6.49177481 0.065973084,6.25201609 C0.202978069,6.01225737 0.508405401,5.928959 0.748164124,6.06596399 C3.00853829,7.35760637 5.25721546,8.00008556 7.50009466,8.00008556 C9.74297385,8.00008556 11.991651,7.35760637 14.2520252,6.06596399 C14.4917839,5.928959 14.7972112,6.01225737 14.9342162,6.25201609 C15.0712212,6.49177481 14.9879228,6.79720215 14.7481641,6.93420713 C14.4942174,7.07931956 14.2401404,7.21681202 13.98594,7.34667668 L15.0856305,9.36367508 C15.2178165,9.60612403 15.1284306,9.9098256 14.8859817,10.0420115 C14.6435328,10.1741975 14.3398312,10.0848116 14.2076453,9.84236268 L13.0812652,7.77641171 C12.0881753,8.21256523 11.0933323,8.53241615 10.0971482,8.73549759 L10.8419885,11.1261167 C10.924131,11.3897589 10.7769963,11.6700728 10.5133541,11.7522152 C10.2497119,11.8343577 9.969398,11.6872231 9.88725552,11.4235809 L9.100863,8.89959705 Z" id="Combined-Shape" fill="#666666" fill-rule="nonzero"></path>
    </g>
</svg>