<?xml version="1.0" encoding="UTF-8"?>
<svg width="16px" height="16px" viewBox="0 0 16 16" version="1.1" xmlns="http://www.w3.org/2000/svg" xmlns:xlink="http://www.w3.org/1999/xlink">
    <!-- Generator: Sketch 50.2 (55047) - http://www.bohemiancoding.com/sketch -->
    <title>xianshi_icon</title>
    <desc>Created with Sketch.</desc>
    <defs></defs>
    <g id="Symbols" stroke="none" stroke-width="1" fill="none" fill-rule="evenodd">
        <path d="M8,14 C3.96976717,14 2.42230478e-16,10.4911271 0,7.5 C0,5.24220625 3.96976717,2 8,2 C12.0302328,2 16,5.24220625 16,7.5 C16,10.4911271 12.0302328,14 8,14 Z M8,12.6730769 C11.4381348,12.6730769 14.75,9.61682633 14.75,7.48076923 C14.75,6.10625059 11.4381348,3.32692308 8,3.32692308 C4.56186519,3.32692308 1.25,6.10625059 1.25,7.48076923 C1.25,9.61682633 4.56186519,12.6730769 8,12.6730769 Z M8,11.5 C9.93299662,11.5 11.5,9.93299662 11.5,8 C11.5,6.06700338 9.93299662,4.5 8,4.5 C6.06700338,4.5 4.5,6.06700338 4.5,8 C4.5,9.93299662 6.06700338,11.5 8,11.5 Z" id="Oval-6-Copy" fill="#666666" fill-rule="nonzero"></path>
    </g>
</svg>