<?xml version="1.0" encoding="UTF-8"?>
<svg width="16px" height="16px" viewBox="0 0 16 16" version="1.1" xmlns="http://www.w3.org/2000/svg" xmlns:xlink="http://www.w3.org/1999/xlink">
    <!-- Generator: Sketch 50.2 (55047) - http://www.bohemiancoding.com/sketch -->
    <title>wenjianjia_icon</title>
    <desc>Created with Sketch.</desc>
    <defs></defs>
    <g id="Symbols" stroke="none" stroke-width="1" fill="none" fill-rule="evenodd">
        <path d="M1,2 L1,15 C1,14.9965875 5.66603567,14.9965875 14.998107,15 C15.0005136,15 15.0006255,11.6648192 14.9984427,4.99445759 L14.9984524,4.99445759 C14.9982717,4.44229535 14.5506051,3.99477521 13.9984428,3.99477521 L7.89205205,3.99477521 C7.5833798,3.99477521 7.19361875,3.67474776 7.06294737,3.41144188 L6.14327591,1.58333333 C5.96956867,1.23708927 5.75622986,1 5.56002145,1 L2,1 C1.44771525,1 1,1.44771525 1,2 Z M8,3 L14,3 C15.0714595,3 16,3.92915216 16,5 L16,14 C16,15.0702913 15.0719382,16 14,16 L2,16 C0.928540476,16 0,15.0708478 0,14 L0,2 C0,0.930047957 0.927474535,0 2,0 L5,0 C5.90285106,0 6.5,0 7,1 L8,3 Z M7,9.5 C7,9.22385763 7.21484375,9 7.49769878,9 L11.5023012,9 C11.7771727,9 12,9.23193359 12,9.5 L12,9.5 C12,9.77614237 11.7851562,10 11.5023012,10 L7.49769878,10 C7.22282734,10 7,9.76806641 7,9.5 L7,9.5 Z M9.5,7 C9.77614237,7 10,7.21484375 10,7.49769878 L10,11.5023012 C10,11.7771727 9.76806641,12 9.5,12 L9.5,12 C9.22385763,12 9,11.7851562 9,11.5023012 L9,7.49769878 C9,7.22282734 9.23193359,7 9.5,7 L9.5,7 Z" id="Combined-Shape" fill="#666666" fill-rule="nonzero"></path>
    </g>
</svg>