<?xml version="1.0" encoding="UTF-8"?>
<svg width="16px" height="16px" viewBox="0 0 16 16" version="1.1" xmlns="http://www.w3.org/2000/svg" xmlns:xlink="http://www.w3.org/1999/xlink">
    <!-- Generator: Sketch 50.2 (55047) - http://www.bohemiancoding.com/sketch -->
    <title>dayin_icon</title>
    <desc>Created with Sketch.</desc>
    <defs></defs>
    <g id="Symbols" stroke="none" stroke-width="1" fill="none" fill-rule="evenodd">
        <g id="Group-2" fill="#666666" fill-rule="nonzero">
            <path d="M12,1 L12,4.00019251 L13,4.00019251 L13,0.999807492 C13,0.443716645 12.5543453,0 12.0046024,0 L3.99539757,0 C3.4556644,0 3,0.447629061 3,0.999807492 L3,4.00019251 L4,4.00019251 L4,1.00066245 C4,1.00013664 6.66666667,0.999915818 12,1 Z M12.0046024,1 L12,1 C12,0.996969334 12.0030255,1 12.0046024,1 Z M12.0046024,1 L12,1 C12,0.996969334 12.0030255,1 12.0046024,1 Z M12,4.00019251 L13,4.00019251 L13,0.999807492 C13,0.443716645 12.5543453,0 12.0046024,0 L3.99539757,0 C3.4556644,0 3,0.447629061 3,0.999807492 L3,4.00019251 L4,4.00019251 L4,1.00066245 C4,1.00013664 6.66666667,0.999915818 12,1 L12,4.00019251 Z M2.74480274,10.5 L2.74480274,11.5 C1.50272966,11.5 0.5,10.4979733 0.5,9.25166132 L0.5,5.74833868 C0.5,4.5073018 1.50587138,3.5 2.74480274,3.5 L13.2551973,3.5 C14.4972703,3.5 15.5,4.50202671 15.5,5.74833868 L15.5,9.25166132 C15.5,10.4926982 14.4941286,11.5 13.2551973,11.5 L13.2551973,10.5 C13.9415255,10.5 14.5,9.94073132 14.5,9.25166132 L14.5,5.74833868 C14.5,5.05446851 13.9451425,4.5 13.2551973,4.5 L2.74480274,4.5 C2.05847449,4.5 1.5,5.05926868 1.5,5.74833868 L1.5,9.25166132 C1.5,9.94553149 2.05485749,10.5 2.74480274,10.5 Z M3,15.0029699 C3,14.9988474 6.3325089,14.9978574 12.9975267,15 C12.996925,15 12.9977494,12.99901 13,8.99703014 C13,9.00115264 9.6674911,9.0021426 3.00247329,9 C3.00307504,9 3.00225061,11.00099 3,15.0029699 Z M2,8.99703014 C2,8.4463856 2.45576096,8 3.00247329,8 L12.9975267,8 C13.5511774,8 14,8.45303631 14,8.99703014 L14,15.0029699 C14,15.5536144 13.544239,16 12.9975267,16 L3.00247329,16 C2.44882258,16 2,15.5469637 2,15.0029699 L2,8.99703014 Z M4.49772659,11.5 C4.22158421,11.5 3.99772659,11.2761424 3.99772659,11 C3.99772659,10.7238576 4.22158421,10.5 4.49772659,10.5 L11.4528643,10.5 C11.7290067,10.5 11.9528643,10.7238576 11.9528643,11 C11.9528643,11.2761424 11.7290067,11.5 11.4528643,11.5 L4.49772659,11.5 Z M4.49772659,13.5 C4.22158421,13.5 3.99772659,13.2761424 3.99772659,13 C3.99772659,12.7238576 4.22158421,12.5 4.49772659,12.5 L11.4528643,12.5 C11.7290067,12.5 11.9528643,12.7238576 11.9528643,13 C11.9528643,13.2761424 11.7290067,13.5 11.4528643,13.5 L4.49772659,13.5 Z M13.5,7 C13.2238576,7 13,6.77614237 13,6.5 C13,6.22385763 13.2238576,6 13.5,6 C13.7761424,6 14,6.22385763 14,6.5 C14,6.77614237 13.7761424,7 13.5,7 Z" id="Combined-Shape"></path>
        </g>
    </g>
</svg>