<?xml version="1.0" encoding="UTF-8"?>
<svg width="16px" height="16px" viewBox="0 0 16 16" version="1.1" xmlns="http://www.w3.org/2000/svg" xmlns:xlink="http://www.w3.org/1999/xlink">
    <!-- Generator: Sketch 50.2 (55047) - http://www.bohemiancoding.com/sketch -->
    <title>shuaxintihuan_icon</title>
    <desc>Created with Sketch.</desc>
    <defs></defs>
    <g id="Symbols" stroke="none" stroke-width="1" fill="none" fill-rule="evenodd">
        <path d="M12.9073294,2.13250255 C13.5105828,2.75162332 13.8748064,3.28949924 14,3.74613029 L14,1 C14,0.44771525 13.9370345,0 14.4893192,0 C15.041604,0 15,0.44771525 15,1 C14.9913078,4.45696698 14.9913078,6.12363365 15,6 C14.9873243,6.5112292 15,6.75413431 15,7 C14.9347119,7.31365475 14.764485,7.47048212 14.4893192,7.47048212 C14.2141534,7.47048212 14.051047,7.31365475 14,7 C14,4.23857625 11.2927039,1.09020487 8,1 C4.7072961,0.909795131 1.96454132,4.23857625 1.96454132,7 C1.92507903,7.31365475 1.76432215,7.47048212 1.48227066,7.47048212 C1.20021917,7.47048212 1.03946229,7.31365475 1,7 C1,3.13400675 4.13400675,0 8,0 C9.95868817,0 12.0024493,1.20382138 12.9073294,2.13250255 Z M3.09399042,13.4722821 C2.49076775,12.8921528 2.12656279,12.3881517 2.00137552,11.9602787 L2.00137552,14.5334609 C2.00137552,15.0509634 2.06433786,15.4704821 1.51208125,15.4704821 C0.959824635,15.4704821 1.00142647,15.0509634 1.00142647,14.5334609 C1.01011818,11.2942096 1.01011818,9.73250767 1.00142647,9.84835502 C1.01410157,9.36932242 1.00142647,9.14171519 1.00142647,8.91133383 C1.06671119,8.61743269 1.23692945,8.47048212 1.51208125,8.47048212 C1.78723304,8.47048212 1.95033114,8.61743269 2.00137552,8.91133383 C2.00137552,11.4988464 4.7085337,14.4489371 8.00106986,14.5334609 C11.293606,14.6179848 14.0362211,11.4988464 14.0362211,8.91133383 C14.0756813,8.61743269 14.23643,8.47048212 14.5184672,8.47048212 C14.8005043,8.47048212 14.961253,8.61743269 15.0007133,8.91133383 C15.0007133,12.5338514 11.8668662,15.4704821 8.00106986,15.4704821 C6.04248147,15.4704821 3.99882442,14.342476 3.09399042,13.4722821 Z" id="Combined-Shape" fill="#666666"></path>
    </g>
</svg>