<?xml version="1.0" encoding="UTF-8"?>
<svg width="16px" height="16px" viewBox="0 0 16 16" version="1.1" xmlns="http://www.w3.org/2000/svg" xmlns:xlink="http://www.w3.org/1999/xlink">
    <!-- Generator: Sketch 50.2 (55047) - http://www.bohemiancoding.com/sketch -->
    <title>del_icon</title>
    <desc>Created with Sketch.</desc>
    <defs></defs>
    <g id="Symbols" stroke="none" stroke-width="1" fill="none" fill-rule="evenodd">
        <path d="M0.5,2 L15.5,2 C15.7761424,2 16,2.22385763 16,2.5 C16,2.77614237 15.7761424,3 15.5,3 L0.5,3 C0.223857625,3 3.38176876e-17,2.77614237 0,2.5 C-3.38176876e-17,2.22385763 0.223857625,2 0.5,2 Z M3,5 L3,14 C3,14.5522847 3.44771525,15 4,15 L12,15 C12.5522847,15 13,14.5522847 13,14 L13,5 C13.0218461,4.63439222 13.1885127,4.45158834 13.5,4.45158834 C13.8114873,4.45158834 13.9781539,4.63439222 14,5 L14,14 C14,15.1045695 13.1045695,16 12,16 L4,16 C2.8954305,16 2,15.1045695 2,14 L2,5 C2.05311976,4.63439222 2.22139572,4.45158834 2.50482787,4.45158834 C2.78826002,4.45158834 2.95331739,4.63439222 3,5 Z M6.5,0 L9.5,0 C9.77614237,-5.07265313e-17 10,0.223857625 10,0.5 C10,0.776142375 9.77614237,1 9.5,1 L6.5,1 C6.22385763,1 6,0.776142375 6,0.5 C6,0.223857625 6.22385763,5.07265313e-17 6.5,0 Z M6.5,7 C6.77614237,7 7,7.22385763 7,7.5 L7,12.5 C7,12.7761424 6.77614237,13 6.5,13 C6.22385763,13 6,12.7761424 6,12.5 L6,7.5 C6,7.22385763 6.22385763,7 6.5,7 Z M9.5,7 C9.77614237,7 10,7.22385763 10,7.5 L10,12.5 C10,12.7761424 9.77614237,13 9.5,13 C9.22385763,13 9,12.7761424 9,12.5 L9,7.5 C9,7.22385763 9.22385763,7 9.5,7 Z" id="Combined-Shape" fill="#666666"></path>
    </g>
</svg>