<?xml version="1.0" encoding="UTF-8"?>
<svg width="16px" height="16px" viewBox="0 0 16 16" version="1.1" xmlns="http://www.w3.org/2000/svg" xmlns:xlink="http://www.w3.org/1999/xlink">
    <!-- Generator: Sketch 50.2 (55047) - http://www.bohemiancoding.com/sketch -->
    <title>qinjiahuanke_icon</title>
    <desc>Created with Sketch.</desc>
    <defs></defs>
    <g id="Symbols" stroke="none" stroke-width="1" fill="none" fill-rule="evenodd">
        <path d="M2.66494164,13.4720836 L4.33207467,15.147303 C4.52686383,15.343037 4.5260979,15.6596186 4.33036392,15.8544077 C4.13462993,16.0491969 3.81804837,16.048431 3.6232592,15.852697 L1.14559227,13.3630121 C0.951469245,13.1679475 0.951469245,12.8526828 1.14559227,12.6576182 L3.6232592,10.1679333 C3.81804837,9.97219933 4.13462993,9.9714334 4.33036392,10.1662226 C4.5260979,10.3610117 4.52686383,10.6775933 4.33207467,10.8733273 L2.74103571,12.4720836 L14.1311638,12.4720836 L14.1311638,10.5 C14.1311638,10.2238576 14.3550214,10 14.6311638,10 C14.9073062,10 15.1311638,10.2238576 15.1311638,10.5 L15.1311638,12.9720836 C15.1311638,13.2482259 14.9073062,13.4720836 14.6311638,13.4720836 L2.66494164,13.4720836 Z M13.4662221,2.52791644 L11.7990891,0.852696987 C11.6042999,0.656963001 11.6050659,0.340381438 11.8007999,0.145592276 C11.9965339,-0.0491968867 12.3131154,-0.0484309554 12.5079046,0.147303031 L14.9855715,2.63698788 C15.1796945,2.8320525 15.1796945,3.14731722 14.9855715,3.34238184 L12.5079046,5.83206669 C12.3131154,6.02780068 11.9965339,6.02856661 11.8007999,5.83377745 C11.6050659,5.63898828 11.6042999,5.32240672 11.7990891,5.12667273 L13.3901281,3.52791644 L2,3.52791644 L2,5.50000001 C2,5.77614238 1.77614237,6.00000001 1.5,6.00000001 C1.22385763,6.00000001 1,5.77614238 1,5.50000001 L1,3.02791644 C1,2.75177407 1.22385763,2.52791644 1.5,2.52791644 L13.4662221,2.52791644 Z" id="Combined-Shape" fill="#666666" fill-rule="nonzero"></path>
    </g>
</svg>