<?xml version="1.0" encoding="UTF-8"?>
<svg width="16px" height="16px" viewBox="0 0 16 16" version="1.1" xmlns="http://www.w3.org/2000/svg" xmlns:xlink="http://www.w3.org/1999/xlink">
    <!-- Generator: Sketch 50.2 (55047) - http://www.bohemiancoding.com/sketch -->
    <title>tishi copy</title>
    <desc>Created with Sketch.</desc>
    <defs></defs>
    <g id="Symbols" stroke="none" stroke-width="1" fill="none" fill-rule="evenodd">
        <path d="M7.69238816,7.69238816 L7.69238816,2.19238816 C7.69238816,1.91624578 7.91624578,1.69238816 8.19238816,1.69238816 C8.46853053,1.69238816 8.69238816,1.91624578 8.69238816,2.19238816 L8.69238816,7.69238816 L14.1923882,7.69238816 C14.4685305,7.69238816 14.6923882,7.91624578 14.6923882,8.19238816 C14.6923882,8.46853053 14.4685305,8.69238816 14.1923882,8.69238816 L8.69238816,8.69238816 L8.69238816,14.1923882 C8.69238816,14.4685305 8.46853053,14.6923882 8.19238816,14.6923882 C7.91624578,14.6923882 7.69238816,14.4685305 7.69238816,14.1923882 L7.69238816,8.69238816 L2.19238816,8.69238816 C1.91624578,8.69238816 1.69238816,8.46853053 1.69238816,8.19238816 C1.69238816,7.91624578 1.91624578,7.69238816 2.19238816,7.69238816 L7.69238816,7.69238816 Z" id="Combined-Shape" fill="#666666" transform="translate(8.192388, 8.192388) rotate(-315.000000) translate(-8.192388, -8.192388) "></path>
    </g>
</svg>