<?xml version="1.0" encoding="UTF-8"?>
<svg width="16px" height="16px" viewBox="0 0 16 16" version="1.1" xmlns="http://www.w3.org/2000/svg" xmlns:xlink="http://www.w3.org/1999/xlink">
    <!-- Generator: Sketch 50.2 (55047) - http://www.bohemiancoding.com/sketch -->
    <title>xiaoxi_icon</title>
    <desc>Created with Sketch.</desc>
    <defs></defs>
    <g id="Symbols" stroke="none" stroke-width="1" fill="none" fill-rule="evenodd">
        <g id="Group-5" transform="translate(0.000000, 2.000000)" fill="#666666" fill-rule="nonzero">
            <path d="M2,1 C1.44771525,1 1,1.44771525 1,2 L1,11 C1,11.5522847 1.44771525,12 2,12 L14,12 C14.5522847,12 15,11.5522847 15,11 L15,2 C15,1.44771525 14.5522847,1 14,1 L2,1 Z M2,0 L14,0 C15.1045695,0 16,0.8954305 16,2 L16,11 C16,12.1045695 15.1045695,13 14,13 L2,13 C0.8954305,13 0,12.1045695 0,11 L0,2 C0,0.8954305 0.8954305,0 2,0 Z M3,2.08424839 C2.78286419,1.91364168 2.46853677,1.95136097 2.29793005,2.16849679 C2.12732334,2.3856326 2.16504263,2.69996002 2.38217845,2.87056673 L7.69108922,6.89315917 C7.87239488,7.03561361 8.12760512,7.03561361 8.30891078,6.89315917 L13.6178216,2.78631834 C13.8349574,2.61571163 13.8726767,2.30138421 13.7020699,2.08424839 C13.5314632,1.86711258 13.2171358,1.82939329 13,2 L8,5.86412522 L3,2.08424839 Z" id="Combined-Shape"></path>
        </g>
    </g>
</svg>