<?xml version="1.0" encoding="UTF-8"?>
<svg width="16px" height="16px" viewBox="0 0 16 16" version="1.1" xmlns="http://www.w3.org/2000/svg" xmlns:xlink="http://www.w3.org/1999/xlink">
    <!-- Generator: Sketch 50.2 (55047) - http://www.bohemiancoding.com/sketch -->
    <title>bangzhu_icon</title>
    <desc>Created with Sketch.</desc>
    <defs></defs>
    <g id="Symbols" stroke="none" stroke-width="1" fill="none" fill-rule="evenodd">
        <path d="M7.02734375,8.43098958 C7.02734375,8.21759153 7.0468748,8.02589784 7.0859375,7.85590278 C7.12890646,7.69314155 7.21289,7.53038276 7.33789062,7.36762153 L8.41015625,5.98958333 C8.609376,5.72916536 8.70898438,5.48502718 8.70898438,5.25716146 C8.70117184,4.94610666 8.59179793,4.70196848 8.38085938,4.52473958 C8.16601455,4.35474452 7.93164189,4.26974826 7.67773438,4.26974826 C7.36523281,4.26974826 7.109376,4.35836138 6.91015625,4.53559028 C6.68359262,4.72005301 6.5703125,5.03472 6.5703125,5.47960069 L5.34570312,5.47960069 L5.34570312,5.25716146 C5.35351566,4.6422857 5.582029,4.13773345 6.03125,3.74348958 C6.47265846,3.3456288 6.99999693,3.14308453 7.61328125,3.13585069 C8.23828437,3.14308453 8.77538838,3.33116135 9.22460938,3.70008681 C9.68945545,4.08709684 9.92578121,4.6097334 9.93359375,5.26801215 C9.92578121,5.73459435 9.79687625,6.12340701 9.546875,6.43446181 L8.45703125,7.82335069 C8.31249928,8.01504725 8.24414059,8.24833485 8.25195312,8.52322049 L8.25195312,9.15798611 L7.02734375,9.15798611 L7.02734375,8.43098958 Z M7.02734375,10.9772135 L8.25195312,10.9772135 L8.25195312,12.1111111 L7.02734375,12.1111111 L7.02734375,10.9772135 Z M7.5,14 C11.0898509,14 14,11.0898509 14,7.5 C14,3.91014913 11.0898509,1 7.5,1 C3.91014913,1 1,3.91014913 1,7.5 C1,11.0898509 3.91014913,14 7.5,14 Z M7.5,15 C3.35786438,15 0,11.6421356 0,7.5 C0,3.35786438 3.35786438,0 7.5,0 C11.6421356,0 15,3.35786438 15,7.5 C15,11.6421356 11.6421356,15 7.5,15 Z" id="Combined-Shape" fill="#666666"></path>
    </g>
</svg>