<?xml version="1.0" encoding="UTF-8"?>
<svg width="16px" height="16px" viewBox="0 0 16 16" version="1.1" xmlns="http://www.w3.org/2000/svg" xmlns:xlink="http://www.w3.org/1999/xlink">
    <!-- Generator: Sketch 50.2 (55047) - http://www.bohemiancoding.com/sketch -->
    <title>zhuye_icon</title>
    <desc>Created with Sketch.</desc>
    <defs></defs>
    <g id="Symbols" stroke="none" stroke-width="1" fill="none" fill-rule="evenodd">
        <path d="M1.52588141,8.5 L4,8.5 L4,14.9915594 C4,14.9827452 4.01831732,15 4.07017517,15 L5.5,15 L5.5,12.990778 C5.5,11.888593 6.39308593,11 7.49895656,11 L8.50104344,11 C9.60178798,11 10.5,11.8954473 10.5,12.990778 L10.5,15 L11.9298248,15 C11.9797698,15 12,14.980976 12,14.9915594 L12,8.5 L14.4745025,8.5 L8.00001958,1.47552501 L1.52588141,8.5 Z M6.5,16 L4.07017517,16 C3.47913374,16 3,15.5490045 3,14.9915594 L3,9.5 L0.688286713,9.5 C0.112063617,9.5 -0.219266871,8.90981554 0.166004205,8.5 L8,0 L15.8344795,8.5 C16.2204982,8.91061087 15.8840606,9.5 15.312197,9.5 L13,9.5 L13,14.9915594 C13,15.5485058 12.5176792,16 11.9298248,16 L9.5,16 L9.5,12.990778 C9.5,12.4509752 9.05275191,12 8.50104344,12 L7.49895656,12 C6.94266033,12 6.5,12.4435864 6.5,12.990778 L6.5,16 Z" id="Combined-Shape" fill="#666666" fill-rule="nonzero"></path>
    </g>
</svg>