<?xml version="1.0" encoding="UTF-8"?>
<svg width="13px" height="16px" viewBox="0 0 13 16" version="1.1" xmlns="http://www.w3.org/2000/svg" xmlns:xlink="http://www.w3.org/1999/xlink">
    <!-- Generator: Sketch 50.2 (55047) - http://www.bohemiancoding.com/sketch -->
    <title>Combined Shape Copy</title>
    <desc>Created with Sketch.</desc>
    <defs></defs>
    <g id="Symbols" stroke="none" stroke-width="1" fill="none" fill-rule="evenodd">
        <path d="M1.6,14.4 L11.2,14.4 L11.2,4 L8.8,1.6 L1.6,1.6 L1.6,14.4 Z M0,0 L9.6,0 L12.8,3.2 L12.8,16 L0,16 L0,0 Z M8.8,1.6 L11.2,4 L8.8,4 L8.8,1.6 Z M2.8354439,11.9906193 C2.66333659,11.9906193 2.53890732,11.9243812 2.46459512,11.7929671 C2.39611707,11.6733493 2.38148293,11.5119039 2.42355122,11.3389347 C2.47126829,11.1405117 2.58902439,10.9600888 2.7936,10.772212 C3.0493561,10.5391332 3.42446829,10.3042872 3.85019512,10.1110151 C4.06277073,10.0142663 4.31639024,9.91414308 4.5910439,9.8184188 C4.90807805,9.35641567 5.35937561,8.63030601 5.68410732,7.83050444 C5.7208878,7.73966789 5.75579512,7.64827676 5.78882927,7.55692324 C5.70427317,7.37326684 5.63338537,7.18406475 5.57675122,6.99071749 C5.48882927,6.69731279 5.43262439,6.43449399 5.40971707,6.2093859 C5.38700488,5.99213577 5.39123902,5.77300574 5.42225366,5.55671436 C5.45263415,5.34595927 5.50323902,5.19659217 5.58155122,5.08699426 C5.6814439,4.95070183 5.81413659,4.88420992 5.9081561,4.85164073 C5.9814439,4.82674151 6.03498537,4.82057546 6.07042927,4.81646789 C6.13834146,4.8054141 6.21931707,4.79156867 6.32614634,4.82186319 C6.39116098,4.84033316 6.45563902,4.87319373 6.52461463,4.91218277 L6.5264878,4.90836658 C6.84352195,5.04822141 6.81367805,5.29488251 6.77237073,5.63627154 L6.7556,5.77870183 C6.71033171,6.1824376 6.57816585,6.83977128 6.34668293,7.52586736 C6.36451707,7.55971488 6.38315122,7.59411697 6.40343415,7.629553 C6.57736585,7.93628616 6.8291122,8.28817441 7.1307122,8.64645431 C7.28246829,8.82592794 7.43990244,9.00091802 7.60278049,9.17110496 C7.8679122,9.15476867 8.13388293,9.156047 8.39881951,9.17495875 C8.67080976,9.19625796 8.9428,9.23755927 9.18708293,9.29377755 C9.46600976,9.35744021 9.66741463,9.43109452 9.84004878,9.53323864 C10.057961,9.66109034 10.2268683,9.83328877 10.3142537,10.0170956 C10.414439,10.2244668 10.4184488,10.4608543 10.3235902,10.6477065 C10.2663122,10.762446 10.138722,10.9187405 9.85765854,11.0044825 C9.65251707,11.0653159 9.44897561,11.0655791 9.23372683,11.0065316 C9.03472195,10.9505765 8.8016,10.8342956 8.53974634,10.6605556 C8.27946341,10.4878026 8.03357073,10.2898966 7.7426439,10.0176031 C7.62339512,9.90675509 7.50663415,9.79355718 7.39230244,9.6780094 C7.20263415,9.69802089 6.99192195,9.72856919 6.72549268,9.77428825 C6.11589268,9.87506945 5.51597073,10.0241076 4.93178537,10.2198423 L4.8548,10.3278987 C4.44638049,10.8943676 4.0484,11.3391885 3.70339512,11.6143018 C3.43962927,11.8237786 3.19641951,11.9433587 2.95903415,11.9795655 C2.9153561,11.9872731 2.87404878,11.9906193 2.8354439,11.9906193 Z M4.02545366,10.5725107 C3.54832195,10.7953065 3.27740488,11.0101316 3.15643902,11.1205003 C2.98834146,11.2747457 2.94733659,11.3756115 2.93026341,11.4464742 C2.92629268,11.4628856 2.92362927,11.4772762 2.92202927,11.4898339 C3.05148293,11.4580073 3.20068293,11.3753577 3.36665366,11.2434266 C3.51795122,11.1230757 3.73990244,10.9169452 4.02545366,10.5725107 Z M8.08284878,9.64849504 L8.10921951,9.67338486 C8.37907317,9.92595822 8.60419512,10.1076689 8.83998049,10.2639728 C9.05281951,10.4048992 9.2404,10.5003979 9.38159024,10.5406747 C9.4950439,10.5714768 9.59630244,10.5719937 9.69885854,10.5416992 C9.754,10.5247708 9.8272878,10.4931979 9.85285854,10.4413504 C9.87682927,10.3943906 9.88216585,10.305058 9.83978537,10.21753 C9.7942439,10.1212982 9.69325854,10.023224 9.56273171,9.94674047 C9.43910244,9.87334935 9.28566829,9.8184188 9.06349268,9.76811279 C8.83090732,9.71560731 8.59454634,9.67992689 8.35643902,9.66134413 C8.26665366,9.65440731 8.17526829,9.65029034 8.08284878,9.64849504 Z M6.11409756,8.1372376 C5.88552195,8.67341201 5.60819512,9.17161253 5.35617561,9.57869452 L5.41851707,9.56122089 C5.81795122,9.45216815 6.22309268,9.36360627 6.6322439,9.29582663 C6.75773659,9.27453681 6.87122927,9.25606684 6.97698537,9.24038851 C6.89028293,9.14444804 6.80529756,9.04706945 6.72202927,8.94830914 C6.50274146,8.68992689 6.29973659,8.41907154 6.11409756,8.1372376 Z M6.17377561,5.28819948 C6.17057561,5.28871645 6.13646829,5.30002402 6.13326829,5.30054099 C6.11733659,5.30137755 6.10163902,5.30450757 6.08666341,5.30979008 C6.05689756,5.31922715 6.03075122,5.33700157 6.01155122,5.36086684 C5.99554146,5.3831906 5.96197073,5.45066945 5.93746341,5.6226517 C5.91203902,5.80183394 5.90865366,5.98324386 5.92736585,6.16319687 C5.94412683,6.32901305 5.98277073,6.52176815 6.04218537,6.73711958 C6.14607805,6.33620366 6.21001951,5.97942768 6.23826341,5.72762507 L6.25556098,5.58185796 C6.26649756,5.491247 6.27766829,5.39806057 6.27953171,5.343647 C6.24580488,5.32263916 6.21043902,5.30410339 6.17377561,5.28819948 Z" id="Combined-Shape-Copy" fill="#EF4C4F" fill-rule="nonzero"></path>
    </g>
</svg>