<?xml version="1.0" encoding="UTF-8"?>
<svg width="16px" height="16px" viewBox="0 0 16 16" version="1.1" xmlns="http://www.w3.org/2000/svg" xmlns:xlink="http://www.w3.org/1999/xlink">
    <!-- Generator: Sketch 50.2 (55047) - http://www.bohemiancoding.com/sketch -->
    <title>soucuo_icon</title>
    <desc>Created with Sketch.</desc>
    <defs></defs>
    <g id="Symbols" stroke="none" stroke-width="1" fill="none" fill-rule="evenodd">
        <path d="M5.5,10 C7.98528137,10 10,7.98528137 10,5.5 C10,3.01471863 7.98528137,1 5.5,1 C3.01471863,1 1,3.01471863 1,5.5 C1,7.98528137 3.01471863,10 5.5,10 Z M5.5,11 C2.46243388,11 0,8.53756612 0,5.5 C0,2.46243388 2.46243388,0 5.5,0 C8.53756612,0 11,2.46243388 11,5.5 C11,8.53756612 8.53756612,11 5.5,11 Z M15.6617282,14.7870346 C15.8607782,14.9784339 15.8669802,15.2949557 15.6755809,15.4940056 C15.4841815,15.6930556 15.1676597,15.6992576 14.9686098,15.5078582 L10.1727333,10.8963136 C9.9736833,10.7049142 9.96748128,10.3883924 10.1588807,10.1893425 C10.35028,9.99029251 10.6668018,9.98409049 10.8658517,10.1754899 L15.6617282,14.7870346 Z" id="Combined-Shape" fill="#666666" fill-rule="nonzero"></path>
    </g>
</svg>