<?xml version="1.0" encoding="UTF-8"?>
<svg width="16px" height="16px" viewBox="0 0 16 16" version="1.1" xmlns="http://www.w3.org/2000/svg" xmlns:xlink="http://www.w3.org/1999/xlink">
    <!-- Generator: Sketch 50.2 (55047) - http://www.bohemiancoding.com/sketch -->
    <title>shezhi_icon</title>
    <desc>Created with Sketch.</desc>
    <defs></defs>
    <g id="Symbols" stroke="none" stroke-width="1" fill="none" fill-rule="evenodd">
        <path d="M4,13.4016517 C4,13.6407822 3.98313946,13.8779295 3.949837,14.1117466 C4.2049377,14.293064 4.47185482,14.45711 4.74881818,14.6026629 C5.64167017,13.8376107 6.78615768,13.4016517 8,13.4016517 C9.21384232,13.4016517 10.3583298,13.8376107 11.2511818,14.6026629 C11.5281452,14.45711 11.7950623,14.293064 12.050163,14.1117466 C12.0168605,13.8779295 12,13.6407822 12,13.4016517 C12,11.385581 13.2033605,9.60698827 14.987552,8.82312005 C14.9958378,8.68328449 15,8.54275687 15,8.40165167 C15,8.26054648 14.9958378,8.12001885 14.987552,7.9801833 C13.2033605,7.19631508 12,5.41772231 12,3.40165167 C12,3.16252119 12.0168605,2.92537385 12.050163,2.69155678 C11.7950623,2.51023937 11.5281452,2.34619339 11.2511818,2.20064048 C10.3583298,2.96569262 9.21384232,3.40165167 8,3.40165167 C6.78615768,3.40165167 5.64167017,2.96569262 4.74881818,2.20064048 C4.47185482,2.34619339 4.2049377,2.51023937 3.949837,2.69155678 C3.98313946,2.92537385 4,3.16252119 4,3.40165167 C4,5.41772231 2.79663947,7.19631508 1.01244798,7.9801833 C1.00416219,8.12001885 1,8.26054648 1,8.40165167 C1,8.54275687 1.00416219,8.68328449 1.01244798,8.82312005 C2.79663947,9.60698827 4,11.385581 4,13.4016517 Z M0,8.40165167 C0,8.01184815 0.0278790078,7.62855612 0.0817518697,7.25366074 C1.76534664,6.78183443 3,5.23592742 3,3.40165167 C3,3.01444989 2.94498381,2.64009783 2.84234207,2.28598611 C3.47202943,1.75439566 4.18494338,1.31828981 4.95875247,1 C5.69239856,1.8578847 6.78269749,2.40165167 8,2.40165167 C9.21730251,2.40165167 10.3076014,1.8578847 11.0412475,1 C11.8150566,1.31828981 12.5279706,1.75439566 13.1576579,2.28598611 C13.0550162,2.64009783 13,3.01444989 13,3.40165167 C13,5.23592742 14.2346534,6.78183443 15.9182481,7.25366074 C15.972121,7.62855612 16,8.01184815 16,8.40165167 C16,8.79145519 15.972121,9.17474722 15.9182481,9.54964261 C14.2346534,10.0214689 13,11.5673759 13,13.4016517 C13,13.7888535 13.0550162,14.1632055 13.1576579,14.5173172 C12.5279706,15.0489077 11.8150566,15.4850135 11.0412475,15.8033033 C10.3076014,14.9454186 9.21730251,14.4016517 8,14.4016517 C6.78269749,14.4016517 5.69239856,14.9454186 4.95875247,15.8033033 C4.18494338,15.4850135 3.47202943,15.0489077 2.84234207,14.5173172 C2.94498381,14.1632055 3,13.7888535 3,13.4016517 C3,11.5673759 1.76534664,10.0214689 0.0817518697,9.54964261 C0.0278790078,9.17474722 0,8.79145519 0,8.40165167 Z M8,10.4016517 C9.1045695,10.4016517 10,9.50622117 10,8.40165167 C10,7.29708217 9.1045695,6.40165167 8,6.40165167 C6.8954305,6.40165167 6,7.29708217 6,8.40165167 C6,9.50622117 6.8954305,10.4016517 8,10.4016517 Z M8,11.4016517 C6.34314575,11.4016517 5,10.0585059 5,8.40165167 C5,6.74479742 6.34314575,5.40165167 8,5.40165167 C9.65685425,5.40165167 11,6.74479742 11,8.40165167 C11,10.0585059 9.65685425,11.4016517 8,11.4016517 Z" id="Combined-Shape" fill="#666666" fill-rule="nonzero"></path>
    </g>
</svg>